<?xml version="1.0" standalone="no"?>
<!DOCTYPE svg PUBLIC "-//W3C//DTD SVG 20010904//EN"
 "http://www.w3.org/TR/2001/REC-SVG-20010904/DTD/svg10.dtd">
<svg version="1.0" xmlns="http://www.w3.org/2000/svg"
 width="192.000000pt" height="192.000000pt" viewBox="0 0 192.000000 192.000000"
 preserveAspectRatio="xMidYMid meet">

<g transform="translate(0.000000,192.000000) scale(0.100000,-0.100000)"
fill="#000000" stroke="none">
<path d="M782 1620 c-239 -63 -436 -269 -482 -507 -17 -87 -8 -252 18 -333 32
-97 88 -186 170 -267 57 -58 91 -82 165 -117 115 -55 177 -70 292 -70 115 0
177 15 292 70 200 96 341 298 360 517 l6 67 -46 0 -46 0 -6 -47 c-20 -145 -72
-253 -169 -348 -223 -219 -559 -219 -782 0 -162 159 -213 387 -133 600 55 147
198 282 350 330 142 45 320 29 442 -38 44 -25 47 -37 10 -37 -16 0 -38 -3 -50
-6 -21 -6 -22 -11 -17 -48 4 -22 9 -43 11 -46 4 -4 255 29 261 34 3 4 -34 255
-39 260 -2 3 -24 2 -48 -1 l-43 -6 6 -43 c3 -24 3 -44 1 -44 -3 0 -33 14 -66
31 -136 68 -311 87 -457 49z"/>
<path d="M730 1383 c-19 -8 -37 -17 -39 -19 -3 -3 196 -484 205 -493 3 -3 483
196 492 204 5 5 -30 85 -38 85 -4 0 -93 -36 -196 -80 -104 -44 -194 -80 -199
-80 -6 0 -49 90 -95 200 -45 110 -86 200 -89 199 -3 0 -22 -7 -41 -16z"/>
</g>
</svg>
